HIERARCHY
ROOT Hips
{
	OFFSET -3.958830 18.904000 13.208200
	CHANNELS 6 Xposition Yposition Zposition Zrotation Yrotation Xrotation 
	JOINT LHipJoint
	{
		OFFSET 0.000000 0.000000 0.000000
		CHANNELS 3 Zrotation Yrotation Xrotation
		JOINT LeftUpLeg
		{
			OFFSET 1.800000 -1.400000 0.085000
			CHANNELS 3 Zrotation Yrotation Xrotation
			JOINT LeftLeg
			{
				OFFSET 2.215000 -6.000000 0.000000
				CHANNELS 3 Zrotation Yrotation Xrotation
				JOINT LeftFoot
				{
					OFFSET 2.500000 -6.900000 0.000000
					CHANNELS 3 Zrotation Yrotation Xrotation
					JOINT LeftToeBase
					{
						OFFSET 0.200000 -0.500000 1.950000
						CHANNELS 3 Zrotation Yrotation Xrotation
						End Site
						{
							OFFSET 0.000000 0.000000 0.000000
						}
					}
				}
			}
		}
	}
	JOINT RHipJoint
	{
		OFFSET 0.000000 0.000000 0.000000
		CHANNELS 3 Zrotation Yrotation Xrotation
		JOINT RightUpLeg
		{
			OFFSET -1.800000 -1.400000 0.085000
			CHANNELS 3 Zrotation Yrotation Xrotation
			JOINT RightLeg
			{
				OFFSET -2.215000 -6.000000 0.000000
				CHANNELS 3 Zrotation Yrotation Xrotation
				JOINT RightFoot
				{
					OFFSET -2.500000 -6.900000 0.000000
					CHANNELS 3 Zrotation Yrotation Xrotation
					JOINT RightToeBase
					{
						OFFSET -0.200000 -0.500000 1.950000
						CHANNELS 3 Zrotation Yrotation Xrotation
						End Site
						{
							OFFSET 0.000000 0.000000 0.000000
						}
					}
				}
			}
		}
	}
	JOINT LowerBack
	{
		OFFSET 0.000000 0.000000 0.000000
		CHANNELS 3 Zrotation Yrotation Xrotation
		JOINT Spine
		{
			OFFSET -0.087000 1.940000 -0.288900
			CHANNELS 3 Zrotation Yrotation Xrotation
			JOINT Spine1
			{
				OFFSET 0.000000 1.950000 0.060000
				CHANNELS 3 Zrotation Yrotation Xrotation
				JOINT Neck
				{
					OFFSET 0.000000 0.000000 0.000000
					CHANNELS 3 Zrotation Yrotation Xrotation
					JOINT Neck1
					{
						OFFSET 0.000000 1.600000 0.340000
						CHANNELS 3 Zrotation Yrotation Xrotation
						JOINT Head
						{
							OFFSET 0.000000 1.667000 -0.240000
							CHANNELS 3 Zrotation Yrotation Xrotation
							End Site
							{
								OFFSET 0.000000 0.000000 0.000000
							}
						}
					}
				}
				JOINT LeftShoulder
				{
					OFFSET 0.000000 0.000000 0.000000
					CHANNELS 3 Zrotation Yrotation Xrotation
					JOINT LeftArm
					{
						OFFSET 2.700000 1.550000 -0.730000
						CHANNELS 3 Zrotation Yrotation Xrotation
						JOINT LeftForeArm
						{
							OFFSET 5.450000 0.000000 0.000000
							CHANNELS 3 Zrotation Yrotation Xrotation
							JOINT LeftHand
							{
								OFFSET 3.450000 0.000000 0.000000
								CHANNELS 3 Zrotation Yrotation Xrotation
								JOINT LeftHandIndex1
								{
									OFFSET 0.750000 0.000000 0.000000
									CHANNELS 3 Zrotation Yrotation Xrotation
									End Site
									{
										OFFSET 0.000000 0.000000 0.000000
									}
								}
							}
						}
					}
				}
				JOINT RightShoulder
				{
					OFFSET 0.000000 0.000000 0.000000
					CHANNELS 3 Zrotation Yrotation Xrotation
					JOINT RightArm
					{
						OFFSET -2.700000 1.550000 -0.730000
						CHANNELS 3 Zrotation Yrotation Xrotation
						JOINT RightForeArm
						{
							OFFSET -5.450000 0.000000 0.000000
							CHANNELS 3 Zrotation Yrotation Xrotation
							JOINT RightHand
							{
								OFFSET -3.450000 0.000000 0.000000
								CHANNELS 3 Zrotation Yrotation Xrotation
								JOINT RightHandIndex1
								{
									OFFSET -0.750000 0.000000 0.000000
									CHANNELS 3 Zrotation Yrotation Xrotation
									End Site
									{
										OFFSET 0.000000 0.000000 0.000000
									}
								}
							}
						}
					}
				}
			}
		}
	}
}
MOTION
Frames: 14
Frame Time: 0.016667
-17.557380 16.989610 10.144600 -167.551880 63.931965 -151.329017 -17.309055 11.014405 7.578029 1.715829 -14.730365 -74.802074 9.162961 2.982130 22.364895 4.543820 -1.621291 5.420859 3.918890 3.170410 2.337430 16.769089 -6.760084 3.085770 -14.066432 11.237808 -18.642358 38.236387 -20.577780 37.621878 -2.739536 -6.041439 5.323590 0.933050 -4.912970 -2.205460 -2.031060 -9.797877 -9.442900 7.246577 -5.380314 60.319284 4.195633 9.976032 -63.937222 16.399906 -12.805196 -31.063132 -39.725882 30.601819 12.018142 23.594390 19.385770 5.249300 45.101784 34.190593 11.493642 -54.484420 44.610838 -22.696851 2.216304 -14.998706 3.328767 -2.830126 4.422520 -1.990080 -1.672340 -0.890750 -0.337520 -55.050885 -15.013974 13.954685 62.591648 32.369298 -0.677756 -11.192544 14.252612 2.753459 -0.018832 -4.816396 3.710020 -1.777100 -2.117500 -2.796140 
-17.524680 16.992900 10.121320 -166.901752 63.585810 -150.359857 -17.334795 10.951678 7.615738 2.819926 -14.133330 -75.806090 7.301790 3.733998 23.417735 4.359386 -1.186009 5.302928 3.842370 3.007050 2.333650 16.753794 -6.770922 3.071090 -13.499859 11.528222 -18.665802 37.626227 -20.238381 37.735925 -2.640592 -5.995189 5.339195 0.935500 -4.875340 -2.259130 -2.015266 -9.827787 -9.474832 8.589168 -3.559306 59.195368 3.861028 9.724439 -64.090044 15.890775 -13.091880 -30.944363 -39.930796 30.084782 12.328824 23.557340 18.122430 5.629550 46.326148 33.922989 11.783663 -55.838647 43.076513 -22.569917 2.985962 -14.510807 3.133630 -2.893614 4.295596 -1.914970 -1.645870 -0.977100 -0.396900 -55.589884 -14.845737 11.768154 61.764235 31.027843 0.836310 -9.177797 7.741042 2.993447 -0.039646 -4.391497 3.563190 -1.716250 -2.032040 -2.893260 
-17.329350 17.024820 9.884440 -163.455740 62.237077 -146.277451 -17.587403 11.032458 7.756964 2.632536 -14.059939 -77.592702 8.582433 3.346182 23.530543 4.210727 -0.934401 5.221082 3.877710 2.905120 2.555490 16.525853 -6.743282 2.920931 -10.854731 12.065293 -16.778540 35.045756 -18.307308 37.375023 -2.509672 -5.593123 5.369211 0.928730 -4.863030 -2.147480 -1.648976 -10.866597 -9.626586 13.316517 -0.578572 52.945716 -1.005274 10.636168 -65.994286 14.825532 -12.590712 -30.338336 -36.943449 28.426009 20.969292 22.590310 16.732110 9.230790 47.902807 29.526761 12.972427 -54.604230 42.130563 -21.881088 2.156857 -16.448477 3.092436 -2.944271 4.281464 -1.855450 -1.564640 -0.945030 -0.490190 -54.116823 -10.079588 6.378016 55.432718 30.613451 1.621336 -1.516369 -23.524423 4.026675 0.767012 -2.558751 3.519900 -1.720510 -2.018110 -2.983990 
-17.028190 17.128360 9.672960 -162.927906 60.671972 -144.083481 -17.498126 11.336100 7.875309 2.839724 -12.930071 -77.855375 4.832124 4.494542 21.072020 4.254206 -1.236322 5.260992 3.843890 2.928820 2.596050 16.512002 -7.210386 2.815215 -6.498009 11.373643 -16.366956 26.648317 -14.890093 40.148634 -2.314798 -4.755051 5.672035 0.866120 -5.014720 -2.204830 -1.476415 -10.875357 -9.615269 12.917669 -1.490406 43.108182 -1.554804 12.747817 -65.124618 14.445676 -10.726650 -32.682516 -32.423096 26.777121 31.810419 22.343600 17.960310 12.363040 50.037630 27.652302 13.334910 -48.166676 42.917445 -20.940532 -0.670362 -13.817344 2.956454 -2.808673 4.119266 -1.803580 -1.619420 -0.836650 -0.538570 -54.593730 -8.657417 8.461917 62.546253 28.053913 0.274657 -13.635924 -16.971616 5.729590 0.996445 -2.968557 3.564380 -1.752020 -2.054910 -3.025380 
-16.692190 17.196560 9.430440 -164.015572 58.943705 -144.289754 -17.218157 11.749622 7.940774 4.079490 -11.320916 -76.004120 -2.528340 6.122752 17.240562 4.096950 -1.117817 5.121955 3.754740 2.717130 2.673630 16.613053 -7.817641 2.760470 -3.336481 10.151032 -14.975181 18.626517 -11.999040 42.624643 -2.136936 -4.044336 5.814983 0.730920 -5.174450 -2.130890 -1.362713 -10.123757 -9.660482 12.559198 -1.704847 31.765979 -2.393110 12.687235 -62.470298 14.987140 -8.761297 -35.842540 -30.441998 25.490512 44.168742 21.753780 17.921180 12.709820 51.459873 26.045541 13.219223 -43.991546 41.326297 -20.115928 1.658847 -11.579067 2.545634 -2.830781 3.980218 -1.588980 -1.696220 -0.726430 -0.691900 -56.820418 -8.885404 10.153588 65.777608 17.058983 -5.229254 -5.303142 -2.379703 3.486608 0.137299 -3.187997 3.527760 -1.842390 -1.960630 -3.156990 
-16.378420 17.257040 9.136160 -165.708640 54.168906 -146.915516 -17.003783 12.348381 8.027762 2.255270 -12.309422 -73.363208 -5.234201 6.520536 17.231945 3.936043 -1.098732 5.102561 3.463420 2.615500 2.263390 16.687256 -8.231370 2.591239 1.106356 6.621702 -10.544497 11.678649 -8.729566 41.700084 -1.891165 -3.233680 6.098773 0.752380 -5.128810 -2.218960 -0.977299 -9.771625 -9.820266 12.620799 -1.313122 24.636775 -2.850263 13.128265 -61.374222 14.739859 -7.639711 -37.542641 -30.627109 24.268776 53.911567 19.647270 15.271330 11.292600 49.299164 24.591890 12.630415 -38.470020 40.541036 -18.685379 -2.460318 -13.714106 3.029760 -2.646551 4.057926 -1.557160 -1.651420 -0.754550 -0.716140 -54.899783 -8.052292 10.811096 60.664984 5.138024 -10.537335 3.933772 4.124570 3.217998 -0.517312 -3.172063 3.392010 -1.741130 -1.756820 -3.137960 
-16.047930 17.317540 8.865230 -169.723586 50.565513 -150.796052 -16.470772 12.438169 8.232919 0.840044 -13.495120 -70.825272 -8.878423 7.868191 19.988499 4.107848 -0.671276 4.943222 3.519690 2.692500 2.420760 16.996382 -8.992758 2.659277 0.953797 4.786985 -8.313129 8.525844 -7.473208 40.674941 -1.881625 -2.811317 6.261004 0.728870 -5.320380 -2.189540 -1.166020 -7.544003 -10.448692 8.981827 -3.173689 15.654256 -4.971763 12.364374 -60.348772 9.933667 -3.791069 -39.574436 -17.652559 15.131993 71.836289 15.185540 15.495300 13.042050 50.835738 20.768687 12.614025 -33.448233 37.970712 -17.737241 -6.742868 -11.789286 3.120614 -2.259942 4.066561 -1.528860 -1.676390 -0.575820 -0.749930 -53.288198 -6.087382 13.056991 68.584076 -4.533882 -15.105026 -3.498224 7.693008 3.405652 0.020590 -3.210860 3.493200 -1.786490 -1.859280 -3.161890 
-15.832740 17.372780 8.563980 -169.566906 49.498831 -151.721090 -16.285128 12.653277 8.311604 0.715932 -13.422435 -68.659068 -9.522075 8.723681 23.187417 4.194037 -0.189034 4.720321 3.642890 2.777650 2.586760 17.009623 -9.278897 2.880230 -0.096212 5.286224 -8.730538 7.955235 -8.533119 45.032193 -2.175901 -3.418839 5.939900 0.716520 -5.527670 -2.135270 -1.002454 -6.844936 -11.116476 8.401194 -3.700102 10.335372 -6.736292 13.196392 -59.031366 5.541280 0.168987 -41.855476 -2.553332 3.267176 83.060356 8.097570 18.610620 14.228140 52.893127 19.241819 11.592729 -32.805396 37.218387 -17.792295 -5.598090 -8.518442 2.501401 -2.132990 3.945476 -1.456250 -1.791990 -0.412340 -0.763910 -52.281213 -4.297424 15.855827 72.061296 -8.894619 -18.126162 -5.010232 10.156412 3.433181 0.107848 -3.337879 3.606710 -1.857620 -1.897330 -3.203180 
-15.719470 17.390010 8.296140 -167.111158 46.139870 -152.332715 -16.435432 12.826438 8.239707 2.602092 -12.891504 -67.968144 -10.269835 10.212377 29.407854 4.961936 0.862838 4.487080 4.382130 3.217920 3.389830 16.897102 -8.902566 2.993570 1.222998 5.460087 -8.633897 8.863162 -10.627943 50.716519 -2.810929 -4.372208 5.549176 0.837800 -6.046730 -1.827580 -0.547687 -7.473133 -11.325785 9.123110 -4.120238 10.467337 -5.188961 15.169030 -57.640291 2.776574 2.025813 -42.972849 7.859839 -8.840579 89.399430 -3.165150 20.544290 7.887200 52.781594 20.541469 11.314260 -34.929772 41.237668 -19.503809 -8.309063 -12.668066 3.801565 -1.394510 4.801241 -1.518790 -2.008270 0.015020 -0.543010 -49.196356 -2.986643 17.602996 63.914953 -11.381615 -17.317903 11.415734 6.214044 3.283433 -0.076488 -3.567271 4.081600 -2.248670 -2.566860 -3.176110 
-15.592220 17.415210 8.101100 -167.822123 43.108576 -155.224722 -16.229035 12.343881 7.948394 2.675755 -13.138544 -66.005825 -10.423684 11.656595 34.884947 5.862737 1.446422 4.463533 4.966150 3.794620 3.869800 17.167939 -9.070122 3.028724 1.036074 5.951635 -10.621551 8.769515 -12.785263 57.605073 -3.488887 -5.480467 5.247492 0.923390 -6.409650 -1.760560 -0.929497 -5.626671 -11.082161 6.111715 -3.012524 9.508536 -3.472002 14.407428 -56.926053 -0.581226 2.399178 -42.441824 17.492572 -21.595984 89.466178 -12.552680 21.543180 0.500300 51.382454 22.153932 10.285607 -38.191919 40.399371 -20.396174 -7.805156 -13.047668 4.506310 -0.823887 5.389114 -1.721740 -2.241070 0.328780 -0.249050 -45.721539 -2.024690 18.467741 66.127003 -15.484575 -17.943940 5.640264 5.274726 3.071068 0.625524 -3.815844 4.560060 -2.433500 -3.106790 -3.004210 
-15.530210 17.412230 7.973830 -168.907657 38.880324 -158.334035 -16.129387 11.723801 7.695570 1.377583 -14.989713 -64.928262 -6.777398 11.438912 41.903830 6.436398 2.107705 4.401177 5.126380 3.950530 3.953380 17.424804 -8.841090 3.149140 -0.635989 7.273940 -14.905879 11.627694 -17.969993 64.410773 -4.146727 -7.184233 4.783034 0.872050 -6.516090 -1.646810 -1.321058 -4.618363 -10.736563 4.595629 -3.291880 11.934629 -1.648872 13.061486 -56.664748 -1.589582 1.444372 -41.333774 18.725999 -25.228878 89.947358 -16.225740 20.818150 -6.108450 49.588863 23.706225 10.211184 -47.711054 40.960010 -22.017178 -2.027962 -14.230399 4.757189 -1.219877 5.325404 -1.812110 -2.331080 0.472630 -0.078580 -43.709998 -0.516125 19.725876 67.589637 -17.913844 -19.506092 11.480769 6.086937 3.089709 0.620449 -4.013146 4.772240 -2.557180 -3.301860 -2.885920 
-15.473640 17.373540 7.874130 -169.263795 36.442943 -161.940877 -16.071017 11.270412 7.273341 2.120236 -15.032346 -62.927276 -7.262062 13.253637 47.341720 7.005294 3.344596 4.172747 5.216320 4.024800 4.023630 17.592189 -8.453040 3.440138 -4.395443 9.130564 -18.992846 17.535509 -24.814613 67.586226 -4.719177 -8.771841 4.365126 0.800200 -6.560260 -1.527990 -1.564432 -4.101244 -10.480793 4.568247 -3.263065 14.971428 -2.754463 12.339644 -57.230586 -1.772565 -0.929500 -39.147522 19.320526 -28.506587 93.890466 -18.971670 20.545300 -13.891920 45.436172 24.755339 10.277433 -56.352888 40.350342 -22.388789 4.009351 -16.204796 5.230975 -1.612522 5.271658 -1.876020 -2.380820 0.561860 -0.009770 -40.273662 2.507987 20.236522 74.997791 -17.693367 -20.630799 6.578749 2.868546 2.968914 0.980026 -4.021744 4.921290 -2.658440 -3.397460 -2.796210 
-15.436520 17.377620 7.764700 -167.560237 35.625179 -164.688631 -16.342114 11.670323 6.835864 4.137922 -13.410681 -60.453257 -7.829063 15.235990 51.175470 7.413839 4.437992 3.980984 5.219320 4.126080 3.863820 17.391977 -7.677352 3.689380 -6.522550 10.826689 -23.757809 20.359920 -27.271295 68.432299 -4.915819 -9.349589 4.251903 0.774210 -6.458290 -1.480100 -0.880743 -6.030576 -10.539792 7.811318 -2.688601 19.649669 -4.004215 14.195792 -59.086843 1.494498 -5.864043 -37.193452 10.031668 -20.528756 107.544741 -17.229400 16.938370 -22.576690 39.061000 26.752235 9.687995 -65.890120 39.005613 -21.429468 15.559165 -13.908456 5.567700 -2.098793 5.073140 -1.965670 -2.390870 0.544800 0.075230 -37.431374 7.673586 20.403393 80.224531 -14.275584 -20.007940 3.863358 -2.829277 3.193872 1.136793 -4.009786 5.005860 -2.641950 -3.360030 -2.652130 
-15.378190 17.401860 7.621180 -167.561969 34.053426 -168.847239 -16.530482 12.364006 6.342365 3.017804 -12.937348 -55.411399 -6.348714 15.126843 53.392844 7.462327 4.702750 3.915086 5.332140 4.261100 3.853020 17.195071 -7.309578 3.725550 -8.597838 10.904619 -26.603722 20.967085 -26.171816 66.353781 -4.741844 -8.923601 4.311314 0.860330 -6.448690 -1.491300 -0.156361 -7.822098 -10.562633 10.162044 -2.392310 22.529589 -5.878451 15.584470 -60.297241 5.980468 -10.365833 -35.538903 -3.516481 -4.493772 122.095916 -11.402260 8.450600 -32.214970 28.678327 27.927321 7.318914 -71.214593 34.238290 -18.431224 24.430465 -5.074759 6.542379 -2.217839 5.067597 -1.978730 -2.464260 0.526080 0.084380 -33.003120 13.955750 21.174115 87.540339 -13.427012 -20.601135 -2.610976 -2.321444 4.041627 1.248156 -4.165292 5.049160 -2.598020 -3.348820 -2.571190 
